<?xml version="1.0" encoding="iso-8859-1"?>
<!-- Generator: Adobe Illustrator 19.0.0, SVG Export Plug-In . SVG Version: 6.00 Build 0)  -->
<svg version="1.1" id="Layer_1" xmlns="http://www.w3.org/2000/svg" xmlns:xlink="http://www.w3.org/1999/xlink" x="0px" y="0px"
	 viewBox="0 0 482.485 482.485" style="enable-background:new 0 0 482.485 482.485;" xml:space="preserve">
<path style="fill:#3A556A;" d="M469.835,96.075h-54.814l-2.409,24.094h42.767v248.169h-65.656H92.16H26.504V120.169h42.767
	l-2.409-24.094H12.047C5.421,96.075,0,100.894,0,106.918v301.779c0,6.024,5.421,10.842,12.047,10.842h458.391
	c6.626,0,12.047-4.819,12.047-10.842V106.918C481.882,101.496,476.461,96.075,469.835,96.075z"/>
<polygon style="fill:#EBF0F3;" points="455.379,368.339 455.379,120.169 413.214,120.169 389.722,368.339 "/>
<polygon style="fill:#2F4859;" points="413.214,120.169 415.624,96.075 66.259,96.075 68.668,120.169 "/>
<polygon style="fill:#E1E6E9;" points="92.16,368.339 389.722,368.339 413.214,120.169 68.668,120.169 "/>
<g>
	<rect x="92.16" y="0.301" style="fill:#EBF0F3;" width="297.562" height="368.038"/>
	<polygon style="fill:#EBF0F3;" points="26.504,120.169 26.504,368.339 92.16,368.339 68.668,120.169 	"/>
</g>
<path style="fill:#FCD462;" d="M152.998,49.092h-37.346c-1.205,0-2.409,1.205-2.409,3.012v18.673c0,1.807,1.205,3.012,2.409,3.012
	h37.346c1.205,0,2.409-1.205,2.409-3.012V51.501C156.009,50.296,154.805,49.092,152.998,49.092z"/>
<path style="fill:#E56353;" d="M206.607,49.092h-37.346c-1.205,0-2.409,1.205-2.409,3.012v18.673c0,1.807,1.205,3.012,2.409,3.012
	h37.346c1.205,0,2.409-1.205,2.409-3.012V51.501C209.016,50.296,207.812,49.092,206.607,49.092z"/>
<path style="fill:#44C4A1;" d="M259.614,49.092h-37.346c-1.205,0-2.409,1.205-2.409,3.012v18.673c0,1.807,1.205,3.012,2.409,3.012
	h37.346c1.205,0,2.409-1.205,2.409-3.012V51.501C262.024,50.296,260.819,49.092,259.614,49.092z"/>
<path style="fill:#27A2DB;" d="M313.224,49.092h-37.346c-1.205,0-2.409,1.205-2.409,3.012v18.673c0,1.807,1.205,3.012,2.409,3.012
	h37.346c1.205,0,2.409-1.205,2.409-3.012V51.501C315.633,50.296,314.428,49.092,313.224,49.092z"/>
<g>
	<path style="fill:#64798A;" d="M366.231,49.092h-37.346c-1.205,0-2.409,1.205-2.409,3.012v18.673c0,1.807,1.205,3.012,2.409,3.012
		h37.346c1.205,0,2.409-1.205,2.409-3.012V51.501C368.64,50.296,367.435,49.092,366.231,49.092z"/>
	<rect x="92.16" y="82.824" style="fill:#64798A;" width="297.562" height="105.412"/>
</g>
<g>
	<polygon style="fill:#EBF0F3;" points="115.049,144.264 107.821,135.831 115.049,127.398 118.061,131.012 113.845,135.831 
		118.061,140.649 	"/>
	<polygon style="fill:#EBF0F3;" points="366.833,144.264 374.061,135.831 366.833,127.398 363.821,131.012 368.038,135.831 
		363.821,140.649 	"/>
</g>
<rect x="113.242" y="198.475" style="fill:#FCD462;" width="74.692" height="75.896"/>
<rect x="203.595" y="198.475" style="fill:#44C4A1;" width="74.692" height="75.896"/>
<rect x="293.948" y="198.475" style="fill:#E56353;" width="74.692" height="75.896"/>
<rect x="113.242" y="264.132" style="fill:#F6C358;" width="74.692" height="10.24"/>
<rect x="203.595" y="264.132" style="fill:#3EA69B;" width="74.692" height="10.24"/>
<rect x="293.948" y="264.132" style="fill:#D15241;" width="74.692" height="10.24"/>
<g>
	<rect x="113.242" y="297.261" style="fill:#E1E6E9;" width="74.692" height="10.24"/>
	<rect x="203.595" y="297.261" style="fill:#E1E6E9;" width="74.692" height="10.24"/>
	<rect x="293.948" y="297.261" style="fill:#E1E6E9;" width="74.692" height="10.24"/>
	<rect x="113.242" y="327.379" style="fill:#E1E6E9;" width="37.346" height="10.24"/>
	<rect x="203.595" y="327.379" style="fill:#E1E6E9;" width="29.515" height="10.24"/>
	<rect x="293.948" y="327.379" style="fill:#E1E6E9;" width="37.346" height="10.24"/>
</g>
<rect x="92.16" y="0.301" style="fill:#64798A;" width="297.562" height="39.153"/>
<rect x="109.707" y="9.758" style="fill:#EBF0F3;" width="174.08" height="19.878"/>
<ellipse style="fill:#FCD462;" cx="304.188" cy="20.179" rx="10.842" ry="10.24"/>
<ellipse style="fill:#44C4A1;" cx="332.499" cy="20.179" rx="10.842" ry="10.24"/>
<ellipse style="fill:#E56353;" cx="360.809" cy="20.179" rx="10.842" ry="10.24"/>
<g>
	<ellipse style="fill:#2F4859;" cx="240.941" cy="393.035" rx="18.673" ry="16.866"/>
	<rect x="148.179" y="420.141" style="fill:#2F4859;" width="184.922" height="35.539"/>
</g>
<polygon style="fill:#64798A;" points="333.704,455.68 148.179,455.68 333.704,420.141 "/>
<path style="fill:#3A556A;" d="M371.049,455.078H110.833c-4.819,0-9.035,3.614-9.035,8.433v18.673h278.889v-18.673
	C380.687,458.692,376.471,455.078,371.049,455.078z"/>
<g>
</g>
<g>
</g>
<g>
</g>
<g>
</g>
<g>
</g>
<g>
</g>
<g>
</g>
<g>
</g>
<g>
</g>
<g>
</g>
<g>
</g>
<g>
</g>
<g>
</g>
<g>
</g>
<g>
</g>
</svg>
