<?xml version="1.0" encoding="iso-8859-1"?>
<!-- Generator: Adobe Illustrator 19.0.0, SVG Export Plug-In . SVG Version: 6.00 Build 0)  -->
<svg version="1.1" id="Capa_1" xmlns="http://www.w3.org/2000/svg" xmlns:xlink="http://www.w3.org/1999/xlink" x="0px" y="0px"
	 viewBox="0 0 512.007 512.007" style="enable-background:new 0 0 512.007 512.007;" xml:space="preserve">
<g transform="translate(0 -1)">
	<rect x="185.383" y="419.964" style="fill:#95A5A5;" width="141.241" height="80.066"/>
	<path style="fill:#BDC3C7;" d="M476.693,80.456H35.314c-9.366-0.003-18.349,3.717-24.971,10.339S0.001,106.4,0.004,115.766v291.31
		c-0.003,9.366,3.717,18.348,10.339,24.971c6.623,6.622,15.605,10.342,24.971,10.339h441.379
		c9.366,0.003,18.348-3.717,24.971-10.339c6.622-6.623,10.342-15.605,10.339-24.971v-291.31c0.003-9.366-3.717-18.349-10.339-24.971
		C495.042,84.172,486.059,80.453,476.693,80.456z"/>
	<path style="fill:#35495E;" d="M512.004,371.766v-256c0.003-9.366-3.717-18.348-10.339-24.971
		c-6.623-6.623-15.605-10.342-24.971-10.339H35.314c-9.366-0.003-18.348,3.717-24.971,10.339C3.72,97.417,0.001,106.4,0.004,115.766
		l0,256H512.004z"/>
	<path style="fill:#BDC3C7;" d="M123.59,477.697h264.828c4.875,0,8.828,3.952,8.828,8.828v17.655c0,4.875-3.952,8.828-8.828,8.828
		H123.59c-4.875,0-8.828-3.952-8.828-8.828v-17.655C114.762,481.649,118.714,477.697,123.59,477.697z"/>
	<path style="fill:#4482C3;" d="M236.142,168.731c-19.912,27.71-51.947,44.138-86.069,44.138s-66.157-16.428-86.069-44.138H236.142z
		"/>
	<path style="fill:#46B29D;" d="M256.004,106.938c0.064,22.177-6.889,43.806-19.862,61.793H64.004
		c-26.723-37.222-26.486-87.406,0.586-124.375S139.432-7.987,182.985,6.252S256,61.117,256.004,106.938z"/>
	<circle style="fill:#F9EAB0;" cx="150.073" cy="71.628" r="35.31"/>
	<path style="fill:#F3D55B;" d="M150.073,106.938c29.252,0,52.966,23.713,52.966,52.966v8.828H97.107v-8.828
		C97.107,130.652,120.821,106.938,150.073,106.938z"/>
	<g>
		<path style="fill:#E6E7E8;" d="M229.521,257.007H70.624c-4.875,0-8.828-3.952-8.828-8.828c0-4.875,3.952-8.828,8.828-8.828
			h158.897c4.875,0,8.828,3.952,8.828,8.828C238.348,253.055,234.396,257.007,229.521,257.007z"/>
		<path style="fill:#E6E7E8;" d="M229.521,292.318H70.624c-4.875,0-8.828-3.952-8.828-8.828s3.952-8.828,8.828-8.828h158.897
			c4.875,0,8.828,3.952,8.828,8.828S234.396,292.318,229.521,292.318z"/>
		<path style="fill:#E6E7E8;" d="M229.521,327.628H70.624c-4.875,0-8.828-3.952-8.828-8.828c0-4.875,3.952-8.828,8.828-8.828
			h158.897c4.875,0,8.828,3.952,8.828,8.828C238.348,323.676,234.396,327.628,229.521,327.628z"/>
	</g>
	<path style="fill:#7F8C8D;" d="M332.627,150.193l-38.577,50.229l-0.618,0.53c-1.367-1.599-2.118-3.634-2.119-5.738v-70.621
		c-0.016-2.54,1.081-4.959,3.001-6.621l0.53,0.706L332.627,150.193z"/>
	<path style="fill:#5E5F62;" d="M395.126,200.864v0.088c-1.698,1.933-4.136,3.055-6.709,3.09h-88.276
		c-2.573-0.034-5.011-1.157-6.709-3.09l0.618-0.53l38.577-50.229l11.652,9.71l11.652-9.71l38.577,50.229L395.126,200.864z"/>
	<path style="fill:#7F8C8D;" d="M397.245,124.593v70.621c-0.001,2.077-0.754,4.084-2.119,5.65l-0.618-0.441l-38.577-50.229
		l37.782-31.514l0.618-0.617C396.192,119.722,397.253,122.1,397.245,124.593z"/>
	<path style="fill:#95A5A5;" d="M394.332,118.061l-0.618,0.618l-37.782,31.514l-11.652,9.71l-11.652-9.71l-37.782-31.514
		l-0.53-0.706c1.603-1.431,3.678-2.217,5.826-2.207h88.276c2.148-0.01,4.224,0.776,5.826,2.207L394.332,118.061z"/>
	<path style="fill:#4482C3;" d="M344.279,230.524c-34.127,0-61.793,27.666-61.793,61.793s27.666,61.793,61.793,61.793
		s61.793-27.666,61.793-61.793C406.033,258.207,378.39,230.564,344.279,230.524z M387.525,283.49H370.51
		c-0.398-9.984-1.992-19.884-4.748-29.489C376.95,260.209,384.892,270.969,387.525,283.49z M335.709,301.145h17.141
		c0.091,12.041-2.857,23.91-8.571,34.509C338.566,325.055,335.618,313.186,335.709,301.145L335.709,301.145z M335.709,283.49
		c-0.091-12.041,2.857-23.91,8.571-34.509c5.713,10.599,8.661,22.468,8.571,34.509H335.709z M322.797,254.001
		c-2.756,9.604-4.35,19.505-4.748,29.489h-17.015C303.667,270.969,311.609,260.209,322.797,254.001z M301.034,301.145h17.015
		c0.398,9.984,1.992,19.884,4.748,29.489C311.609,324.427,303.667,313.666,301.034,301.145z M365.762,330.634
		c2.756-9.604,4.35-19.505,4.748-29.489h17.015C384.892,313.666,376.95,324.427,365.762,330.634z"/>
	<g>
		<path style="fill:#E6E7E8;" d="M476.693,168.731h-44.138c-4.875,0-8.828-3.952-8.828-8.828s3.952-8.828,8.828-8.828h44.138
			c4.875,0,8.828,3.952,8.828,8.828S481.569,168.731,476.693,168.731z"/>
		<path style="fill:#E6E7E8;" d="M476.693,204.042h-44.138c-4.875,0-8.828-3.952-8.828-8.828s3.952-8.828,8.828-8.828h44.138
			c4.875,0,8.828,3.952,8.828,8.828S481.569,204.042,476.693,204.042z"/>
		<path style="fill:#E6E7E8;" d="M476.693,309.973h-44.138c-4.875,0-8.828-3.952-8.828-8.828s3.952-8.828,8.828-8.828h44.138
			c4.875,0,8.828,3.952,8.828,8.828S481.569,309.973,476.693,309.973z"/>
		<path style="fill:#E6E7E8;" d="M476.693,345.283h-44.138c-4.875,0-8.828-3.952-8.828-8.828s3.952-8.828,8.828-8.828h44.138
			c4.875,0,8.828,3.952,8.828,8.828S481.569,345.283,476.693,345.283z"/>
	</g>
</g>
<g>
</g>
<g>
</g>
<g>
</g>
<g>
</g>
<g>
</g>
<g>
</g>
<g>
</g>
<g>
</g>
<g>
</g>
<g>
</g>
<g>
</g>
<g>
</g>
<g>
</g>
<g>
</g>
<g>
</g>
</svg>
