<?xml version="1.0" encoding="UTF-8"?>
<!DOCTYPE svg PUBLIC "-//W3C//DTD SVG 1.1//EN" "http://www.w3.org/Graphics/SVG/1.1/DTD/svg11.dtd">
<!-- Creator: CorelDRAW 2018 (64-Bit Evaluation Version) -->
<svg xmlns="http://www.w3.org/2000/svg" xml:space="preserve" width="297mm" height="100mm" version="1.1" style="shape-rendering:geometricPrecision; text-rendering:geometricPrecision; image-rendering:optimizeQuality; fill-rule:evenodd; clip-rule:evenodd"
viewBox="0 0 29700 10000"
 xmlns:xlink="http://www.w3.org/1999/xlink">
 <defs>
  <style type="text/css">
   <![CDATA[
    .fil1 {fill:black;fill-rule:nonzero}
    .fil0 {fill:#12B595;fill-rule:nonzero}
   ]]>
  </style>
 </defs>
 <g id="Layer_x0020_1">
  <metadata id="CorelCorpID_0Corel-Layer"/>
  <g id="_2576840781472">
   <path class="fil0" d="M6472.29 5774.6l796.9 0c-60.23,827.8 -315.05,1465.63 -762.93,1918.13 -447.87,450.97 -1053.27,676.45 -1816.2,676.45 -455.59,0 -866.4,-71.05 -1235.51,-213.13 -367.56,-142.08 -696.52,-358.3 -985.32,-651.73 -319.69,-316.6 -562.15,-682.62 -725.86,-1096.52 -165.25,-415.44 -247.1,-860.22 -247.1,-1337.44 0,-478.76 80.31,-918.91 239.38,-1318.9 160.61,-400 401.54,-761.39 724.32,-1084.16 291.89,-291.89 619.3,-512.74 982.23,-662.55 361.38,-149.8 750.57,-223.93 1166.01,-223.93 332.04,0 645.55,52.51 938.99,155.98 293.43,105.02 582.23,265.63 866.4,481.85l186.87 -554.44 668.72 0 0 2548.24 -713.51 0c-72.58,-594.59 -262.54,-1056.36 -571.42,-1382.22 -310.42,-325.87 -708.87,-489.57 -1196.9,-489.57 -569.88,0 -1016.21,227.02 -1340.53,682.61 -324.32,455.6 -486.48,1085.71 -486.48,1891.88 0,766.02 160.61,1357.52 483.39,1774.5 322.78,418.53 776.83,627.02 1360.61,627.02 455.59,0 824.7,-148.26 1107.32,-446.32 282.63,-296.53 469.5,-728.96 560.62,-1295.75z"/>
   <path class="fil0" d="M8368.8 5998.54c0,565.25 100.38,986.86 299.61,1266.4 199.23,279.53 500.38,418.53 905.01,418.53 404.63,0 708.88,-140.54 911.19,-421.62 202.31,-279.53 302.7,-701.15 302.7,-1263.31 0,-566.79 -100.39,-991.5 -302.7,-1274.12 -202.31,-282.62 -506.56,-423.16 -911.19,-423.16 -401.54,0 -702.7,140.54 -903.47,423.16 -200.77,282.62 -301.15,707.33 -301.15,1274.12zm-1260.22 0c0,-710.42 223.93,-1281.84 673.35,-1711.18 449.42,-429.34 1047.1,-644.01 1791.49,-644.01 747.48,0 1346.71,216.21 1797.67,647.1 450.96,430.88 676.44,1000.76 676.44,1708.09 0,705.79 -225.48,1272.58 -676.44,1700.37 -450.96,427.8 -1050.19,642.47 -1797.67,642.47 -744.39,0 -1342.07,-214.67 -1791.49,-642.47 -449.42,-427.79 -673.35,-994.58 -673.35,-1700.37z"/>
   <path class="fil0" d="M13006.6 6006.26c0,525.09 88.03,917.37 262.54,1176.83 174.52,259.45 440.15,389.18 796.91,389.18 324.32,0 582.23,-138.99 770.65,-416.98 188.41,-276.45 282.62,-659.46 282.62,-1149.03 0,-488.02 -94.21,-871.03 -282.62,-1144.39 -188.42,-274.9 -446.33,-412.35 -770.65,-412.35 -359.85,0 -625.48,128.18 -800,384.55 -172.97,256.37 -259.45,647.1 -259.45,1172.19zm2112.72 -2861.75c0,-239.38 -35.52,-390.73 -106.56,-457.14 -71.05,-66.41 -211.58,-100.38 -421.62,-100.38l-389.19 0 0 -620.85 2038.6 0 0 5040.89c0,237.83 35.52,390.73 106.56,457.14 71.04,66.4 211.58,98.84 423.16,98.84l267.18 0 0 620.84 -1918.13 0 0 -761.38c-151.35,304.24 -347.49,529.72 -591.5,673.35 -242.47,145.17 -543.63,217.76 -901.92,217.76 -591.5,0 -1053.28,-203.86 -1383.78,-613.12 -330.5,-407.72 -495.74,-980.69 -495.74,-1720.45 0,-738.22 165.24,-1311.19 495.74,-1722 330.5,-409.26 792.28,-614.66 1383.78,-614.66 355.21,0 654.82,72.58 898.83,219.3 242.47,145.17 440.15,370.65 594.59,677.99l0 -1396.13z"/>
   <path class="fil0" d="M19749.4 5431.75c-27.8,-404.63 -109.66,-699.61 -247.11,-886.48 -137.45,-186.87 -339.76,-281.08 -605.4,-281.08 -271.81,0 -492.66,98.84 -664.08,296.53 -169.89,197.68 -282.63,488.02 -338.22,871.03l1854.81 0zm416.98 1186.09l778.37 0c-66.41,537.45 -281.08,960.61 -644.01,1269.49 -364.47,308.88 -829.33,463.31 -1396.12,463.31 -704.25,0 -1267.95,-213.12 -1686.48,-639.37 -418.53,-427.8 -628.56,-997.68 -628.56,-1712.73 0,-704.24 211.58,-1274.12 636.29,-1706.55 423.16,-432.43 983.77,-648.64 1680.29,-648.64 671.81,0 1184.55,208.49 1536.67,627.02 353.66,416.98 529.72,1023.93 529.72,1819.29l-3122.75 0c18.53,494.2 123.55,871.03 315.05,1130.49 191.51,259.46 460.23,389.19 807.72,389.19 355.21,0 623.93,-75.68 807.71,-228.57 182.24,-152.9 310.43,-406.18 386.1,-762.93z"/>
  </g>
  <path class="fil1" d="M19849.79 1630.82l878.92 0 2197.21 6681.12 -1076.35 0c-735.64,-2227.08 -1471.39,-4454.11 -2207.21,-6681.12l207.43 0z"/>
  <path class="fil1" d="M22333.8 8326.95l0 -640.53 318.68 0c218.29,0 363.28,-33.46 434.98,-101.98 71.7,-68.51 106.76,-226.25 106.76,-471.63l0 -2087.3c0,-246.97 -35.06,-403.12 -106.76,-470.04 -71.7,-66.92 -216.69,-100.38 -434.98,-100.38l-318.68 0 0 -640.54 2017.2 0 0 790.31c248.56,-312.3 505.09,-544.93 768,-701.08 262.9,-154.55 530.59,-232.63 801.46,-232.63 519.43,0 892.28,127.47 1120.13,382.41 227.85,254.94 340.98,681.96 340.98,1279.47l0 1779.78c0,245.38 36.65,403.12 108.35,471.63 73.29,68.52 218.29,101.98 434.98,101.98l278.84 0 0 640.53 -2715.08 0 0 -640.53 191.2 0c216.7,0 361.69,-33.46 434.99,-101.98 73.29,-68.51 109.94,-226.25 109.94,-471.63l0 -1779.78c0,-331.42 -55.77,-568.83 -165.71,-712.24 -109.94,-141.8 -291.59,-213.51 -543.34,-213.51 -360.1,0 -643.71,137.03 -852.44,409.5 -208.73,274.06 -312.3,650.09 -312.3,1128.1l0 1167.93c0,245.38 36.64,403.12 109.94,471.63 73.29,68.52 218.29,101.98 434.99,101.98l191.2 0 0 640.53 -2753.33 0z"/>
 </g>
</svg>
