<?xml version="1.0" encoding="iso-8859-1"?>
<!-- Generator: Adobe Illustrator 19.0.0, SVG Export Plug-In . SVG Version: 6.00 Build 0)  -->
<svg version="1.1" id="Capa_1" xmlns="http://www.w3.org/2000/svg" xmlns:xlink="http://www.w3.org/1999/xlink" x="0px" y="0px"
	 viewBox="0 0 512.001 512.001" style="enable-background:new 0 0 512.001 512.001;" xml:space="preserve">
<path style="fill:#E4EAF8;" d="M319.824,0H70.727C57.053,0,45.866,11.188,45.866,24.862v462.277
	c0,13.674,11.188,24.862,24.862,24.862h249.096c13.674,0,24.862-11.188,24.862-24.862V377.417V188.363V24.862
	C344.685,11.188,333.498,0,319.824,0z"/>
<path style="fill:#D8DCE5;" d="M66.471,487.138V24.862C66.471,11.188,77.658,0,91.332,0H70.727
	C57.053,0,45.866,11.188,45.866,24.862v462.277c0,13.674,11.188,24.862,24.862,24.862h20.605
	C77.658,512,66.471,500.812,66.471,487.138z"/>
<path style="fill:#C3C8D1;" d="M211.511,46.951H179.04c-4.267,0-7.727-3.459-7.727-7.727s3.459-7.727,7.727-7.727h32.471
	c4.267,0,7.727,3.459,7.727,7.727S215.778,46.951,211.511,46.951z"/>
<path style="fill:#5BDDFC;" d="M304.992,77.475H85.559c-3.495,0-6.329,2.834-6.329,6.329v336.712c0,3.495,2.834,6.329,6.329,6.329
	h219.433c3.495,0,6.329-2.834,6.329-6.329v-43.098V188.363V83.804C311.322,80.309,308.487,77.475,304.992,77.475z"/>
<g>
	<path style="fill:#00C3FF;" d="M99.835,420.516V83.804c0-3.495,2.834-6.329,6.329-6.329H85.559c-3.495,0-6.329,2.834-6.329,6.329
		v336.712c0,3.495,2.834,6.329,6.329,6.329h20.605C102.669,426.844,99.835,424.011,99.835,420.516z"/>
	<path style="fill:#00C3FF;" d="M304.991,77.475H85.559c-3.495,0-6.329,2.834-6.329,6.329v42.668h232.09V83.804
		C311.322,80.309,308.487,77.475,304.991,77.475z"/>
</g>
<path style="fill:#FF5050;" d="M124.434,77.475H85.559c-3.495,0-6.329,2.834-6.329,6.329v42.668h45.204
	C124.434,126.472,124.434,77.475,124.434,77.475z"/>
<path style="fill:#ED3A3A;" d="M99.835,84.589c0-3.212,1.97-5.961,4.767-7.113H85.559c-3.495,0-6.329,2.834-6.329,6.329v42.668
	h20.605C99.835,126.473,99.835,84.589,99.835,84.589z"/>
<path style="fill:#C3C8D1;" d="M217.182,484.063H173.37c-6.233,0-11.333-5.1-11.333-11.333v-6.56c0-6.233,5.1-11.333,11.333-11.333
	h43.812c6.233,0,11.333,5.1,11.333,11.333v6.56C228.515,478.963,223.415,484.063,217.182,484.063z"/>
<path style="fill:#B0B3B7;" d="M216.839,469.45h-43.127c-4.878,0-9.076-3.034-10.815-7.307c-0.551,1.352-0.861,2.826-0.861,4.37
	v5.874c0,6.422,5.254,11.676,11.676,11.676h43.127c6.422,0,11.676-5.254,11.676-11.676v-5.874c0-1.544-0.31-3.018-0.861-4.37
	C225.915,466.416,221.717,469.45,216.839,469.45z"/>
<g>
	<path style="fill:#00AAF0;" d="M256.359,199.903H118.264c-4.267,0-7.727-3.459-7.727-7.727s3.459-7.727,7.727-7.727h138.095
		c4.267,0,7.727,3.459,7.727,7.727S260.626,199.903,256.359,199.903z"/>
	<path style="fill:#00AAF0;" d="M256.359,241.886H118.264c-4.267,0-7.727-3.459-7.727-7.727s3.459-7.727,7.727-7.727h138.095
		c4.267,0,7.727,3.459,7.727,7.727S260.626,241.886,256.359,241.886z"/>
	<path style="fill:#00AAF0;" d="M256.359,283.869H118.264c-4.267,0-7.727-3.459-7.727-7.727c0-4.268,3.459-7.727,7.727-7.727
		h138.095c4.267,0,7.727,3.459,7.727,7.727C264.086,280.41,260.626,283.869,256.359,283.869z"/>
	<path style="fill:#00AAF0;" d="M256.359,325.851H118.264c-4.267,0-7.727-3.459-7.727-7.727c0-4.268,3.459-7.727,7.727-7.727
		h138.095c4.267,0,7.727,3.459,7.727,7.727S260.626,325.851,256.359,325.851z"/>
	<path style="fill:#00AAF0;" d="M256.359,367.834H118.264c-4.267,0-7.727-3.459-7.727-7.727s3.459-7.727,7.727-7.727h138.095
		c4.267,0,7.727,3.459,7.727,7.727S260.626,367.834,256.359,367.834z"/>
</g>
<path style="fill:#FFC850;" d="M462.911,259.149h-29.293c-1.861-7.957-4.991-15.423-9.179-22.168l20.711-20.712
	c1.259-1.259,1.259-3.299,0-4.558l-19.474-19.474c-1.259-1.258-3.299-1.258-4.558,0l-20.712,20.711
	c-6.745-4.189-14.211-7.318-22.167-9.179v-29.293c0-1.78-1.443-3.223-3.223-3.223h-27.54c-1.78,0-3.223,1.443-3.223,3.223v29.293
	c-7.957,1.861-15.422,4.991-22.168,9.18l-20.711-20.712c-1.259-1.258-3.299-1.258-4.558,0l-19.474,19.474
	c-1.259,1.258-1.259,3.299,0,4.558l20.711,20.712c-4.189,6.745-7.318,14.211-9.179,22.168h-29.293c-1.78,0-3.222,1.443-3.222,3.223
	v27.541c0,1.78,1.443,3.223,3.222,3.223h29.293c1.861,7.956,4.99,15.422,9.179,22.167l-20.711,20.712
	c-1.259,1.259-1.259,3.299,0,4.558l19.474,19.474c1.259,1.259,3.299,1.259,4.558,0l20.711-20.712
	c6.745,4.189,14.211,7.319,22.168,9.18v29.293c0,1.78,1.443,3.223,3.223,3.223h27.54c1.78,0,3.223-1.443,3.223-3.223v-29.293
	c7.957-1.861,15.422-4.991,22.167-9.18l20.712,20.711c1.259,1.259,3.299,1.259,4.558,0l19.474-19.474
	c1.259-1.259,1.259-3.299,0-4.558l-20.711-20.712c4.189-6.745,7.318-14.21,9.179-22.167h29.293c1.78,0,3.223-1.443,3.223-3.223
	v-27.541C466.134,260.592,464.691,259.149,462.911,259.149z M361.247,309.812c-18.596,0-33.67-15.075-33.67-33.67
	c0-18.595,15.074-33.67,33.67-33.67c18.595,0,33.67,15.074,33.67,33.67C394.917,294.737,379.842,309.812,361.247,309.812z"/>
<g>
	<path style="fill:#F9B428;" d="M277.732,289.912v-27.541c0-1.78,1.443-3.223,3.222-3.223h-21.372c-1.78,0-3.222,1.443-3.222,3.223
		v27.541c0,1.78,1.443,3.223,3.222,3.223h21.372C279.174,293.135,277.732,291.692,277.732,289.912z"/>
	<path style="fill:#F9B428;" d="M298.054,236.981c-4.189,6.745-7.318,14.211-9.179,22.168h17.295c1.923,0,3.6-1.286,4.119-3.138
		c1.712-6.106,4.181-11.894,7.305-17.256c0.613-1.051,0.464-2.377-0.396-3.237l-19.248-19.248c-1.259-1.259-1.259-3.299,0-4.558
		l11.449-11.449l-8.025-8.025c-1.259-1.259-3.299-1.259-4.558,0l-19.474,19.474c-1.259,1.259-1.259,3.299,0,4.558L298.054,236.981z"
		/>
	<path style="fill:#F9B428;" d="M297.951,340.572c-1.259-1.259-1.259-3.299,0-4.558l18.896-18.897
		c1.041-1.041,1.284-2.656,0.549-3.931c-3.17-5.507-5.65-11.459-7.333-17.739c-0.367-1.369-1.619-2.312-3.036-2.312h-18.151
		c1.861,7.956,4.99,15.422,9.179,22.167l-20.711,20.712c-1.259,1.259-1.259,3.299,0,4.558l19.474,19.474
		c1.259,1.259,3.299,1.259,4.558,0l8.025-8.025L297.951,340.572z"/>
	<path style="fill:#F9B428;" d="M364.861,174.477c0-1.78,1.443-3.223,3.223-3.223h-20.607c-1.78,0-3.223,1.443-3.223,3.223v29.293
		h16.032c2.543-0.056,4.575-2.49,4.575-5.034L364.861,174.477L364.861,174.477z"/>
	<path style="fill:#F9B428;" d="M364.861,377.807v-26.118c0-1.754-1.422-3.175-3.175-3.175h-17.432v29.293
		c0,1.78,1.443,3.223,3.223,3.223h20.607C366.304,381.029,364.861,379.587,364.861,377.807z"/>
</g>
<g>
</g>
<g>
</g>
<g>
</g>
<g>
</g>
<g>
</g>
<g>
</g>
<g>
</g>
<g>
</g>
<g>
</g>
<g>
</g>
<g>
</g>
<g>
</g>
<g>
</g>
<g>
</g>
<g>
</g>
</svg>
