<?xml version="1.0" standalone="no"?>
<!DOCTYPE svg PUBLIC "-//W3C//DTD SVG 20010904//EN"
        "http://www.w3.org/TR/2001/REC-SVG-20010904/DTD/svg10.dtd">
<svg version="1.0" xmlns="http://www.w3.org/2000/svg"
     width="1680.000000pt" height="1680.000000pt" viewBox="0 0 1680.000000 1680.000000"
     preserveAspectRatio="xMidYMid meet">
    <metadata>
        Created by potrace 1.11, written by Peter Selinger 2001-2013
    </metadata>
    <g transform="translate(0.000000,1680.000000) scale(0.100000,-0.100000)"
       fill="#000000" stroke="none">
        <path d="M5068 11948 c-10 -5 5 -54 80 -258 9 -25 17 -47 18 -50 0 -3 6 -18
12 -33 7 -16 12 -31 12 -33 0 -3 36 -108 81 -232 84 -238 133 -377 151 -427 5
-16 14 -39 18 -50 5 -11 22 -58 39 -105 144 -410 204 -579 291 -820 23 -63 43
-122 45 -130 2 -8 18 -53 35 -100 18 -47 33 -89 34 -95 1 -5 4 -14 8 -20 3 -5
10 -26 16 -45 6 -19 32 -93 57 -165 26 -71 62 -173 80 -225 19 -52 53 -147 75
-210 23 -63 45 -126 50 -140 4 -14 31 -88 58 -165 28 -77 67 -187 87 -245 19
-58 40 -113 45 -122 6 -10 10 -25 10 -33 0 -8 4 -23 10 -33 5 -9 28 -71 51
-137 23 -66 44 -127 47 -135 3 -8 6 -19 8 -25 1 -5 12 -33 23 -61 11 -29 17
-54 14 -58 -4 -3 0 -6 7 -6 7 0 11 -3 7 -6 -3 -4 0 -19 9 -35 8 -16 12 -29 8
-29 -4 0 -2 -6 3 -12 6 -7 21 -44 33 -83 12 -38 26 -74 30 -80 5 -8 11 -26 35
-105 1 -3 4 -12 8 -20 3 -8 15 -44 28 -80 12 -36 27 -78 34 -95 11 -25 36 -97
40 -115 1 -3 4 -12 8 -20 3 -8 13 -37 22 -65 10 -27 21 -59 25 -70 5 -11 23
-60 40 -110 17 -49 38 -108 47 -130 8 -22 23 -65 33 -95 18 -53 65 -189 77
-220 3 -8 7 -19 9 -25 1 -5 20 -59 42 -120 22 -60 73 -202 112 -315 40 -113
76 -214 82 -225 5 -12 10 -27 12 -35 2 -8 6 -22 9 -30 4 -8 29 -80 57 -160 28
-80 60 -167 70 -195 10 -27 41 -113 68 -190 l49 -140 231 -3 c128 -1 232 1
232 5 0 9 -7 28 -70 203 -23 63 -43 122 -45 130 -2 8 -21 60 -41 115 -20 55
-39 110 -41 123 -3 12 -9 25 -14 28 -5 3 -9 14 -9 25 0 10 -4 27 -10 37 -5 9
-28 71 -50 137 -23 66 -50 143 -60 170 -15 40 -113 319 -150 425 -4 14 -12 34
-16 45 -4 11 -8 22 -9 25 -1 3 -4 12 -7 20 -24 64 -42 117 -44 125 -4 14 -190
538 -211 595 -4 8 -7 17 -8 20 -8 33 -40 118 -48 128 -5 6 -6 12 -3 12 4 0 2
9 -4 21 -6 11 -13 30 -15 42 -3 12 -9 31 -14 42 -10 22 -22 54 -27 70 -1 6
-26 75 -54 155 -29 80 -56 156 -60 170 -5 14 -22 62 -39 107 -16 44 -27 84
-24 87 4 3 2 6 -4 6 -5 0 -10 6 -10 13 -1 6 -22 68 -47 137 -26 69 -49 132
-51 140 -2 8 -14 42 -26 75 -12 33 -45 128 -74 210 -29 83 -74 209 -100 280
-25 72 -48 135 -49 140 -2 6 -6 18 -9 28 -4 9 -10 25 -14 35 -3 9 -7 22 -9 27
-2 10 -75 214 -87 245 -3 8 -12 35 -20 60 -9 25 -22 63 -30 85 -17 46 -27 74
-26 78 0 1 -9 27 -21 57 -12 30 -27 71 -32 90 -6 19 -16 49 -23 65 -8 17 -20
50 -29 75 -8 25 -55 160 -105 300 -50 140 -91 259 -91 263 0 5 -6 23 -14 40
-8 18 -29 73 -46 122 -17 50 -33 97 -37 105 -3 8 -7 21 -9 29 -1 7 -12 36 -23
65 -17 44 -87 241 -163 461 -12 33 -25 64 -30 70 -4 5 -8 16 -8 24 0 13 -48
154 -70 206 -5 11 -11 29 -14 40 -6 26 -34 104 -46 130 -5 11 -20 56 -35 101
-15 44 -30 86 -35 94 -6 10 -56 13 -230 14 -122 1 -227 -2 -232 -6z"/>
        <path d="M13222 10181 l0 -247 47 -22 c25 -13 53 -26 61 -31 33 -18 70 -37
190 -99 69 -35 181 -94 250 -130 69 -36 161 -84 205 -106 44 -22 82 -43 85
-46 3 -3 48 -26 100 -52 52 -26 169 -86 260 -134 277 -144 450 -234 560 -291
58 -30 109 -59 114 -64 6 -5 18 -9 27 -9 10 0 19 -3 21 -7 2 -5 57 -36 123
-69 228 -117 280 -145 289 -154 6 -6 18 -10 27 -10 10 0 19 -3 21 -7 2 -5 39
-26 83 -48 44 -21 92 -47 108 -58 15 -10 27 -16 27 -13 0 3 23 -8 50 -24 28
-17 54 -30 58 -30 4 0 16 -7 26 -15 18 -14 18 -15 -15 -30 -19 -8 -42 -20 -51
-25 -10 -6 -26 -14 -35 -19 -51 -27 -438 -228 -593 -309 -196 -102 -295 -154
-307 -164 -7 -6 -13 -7 -13 -3 0 4 -6 2 -14 -4 -7 -6 -51 -31 -97 -54 -46 -24
-142 -74 -214 -112 -71 -37 -179 -93 -240 -125 -60 -32 -173 -90 -250 -130
-138 -71 -210 -109 -470 -245 -71 -38 -164 -86 -205 -107 -41 -21 -109 -57
-151 -79 l-77 -39 0 -244 0 -244 31 14 c18 8 40 17 50 21 9 3 17 10 17 16 0 6
3 7 7 4 3 -4 11 -3 17 2 6 4 70 39 141 76 72 37 180 93 240 125 191 99 426
221 530 274 55 28 102 54 103 59 2 4 12 7 22 7 10 0 20 3 22 8 2 4 50 31 108
61 58 29 164 84 235 121 72 37 193 100 270 140 77 40 159 83 182 96 22 12 44
20 47 17 3 -4 6 -1 6 5 0 7 7 12 15 12 8 0 15 5 15 10 0 6 8 10 18 10 9 0 28
9 42 20 14 11 33 20 42 20 9 0 18 3 20 8 2 4 35 23 73 42 39 19 72 38 73 43 2
4 9 7 16 7 7 0 59 25 117 56 57 31 172 90 254 132 83 42 152 79 155 82 3 3 64
34 135 70 72 36 132 67 135 70 3 3 40 22 83 44 42 21 80 43 84 50 4 6 8 96 8
200 1 206 1 205 -60 233 -16 7 -79 40 -140 71 -60 32 -175 92 -255 133 -80 41
-148 79 -152 84 -5 7 -8 7 -8 0 0 -7 -3 -7 -8 0 -7 10 -48 32 -297 158 -66 33
-122 63 -125 66 -3 3 -75 41 -160 85 -85 43 -186 94 -225 114 -38 19 -71 39
-73 44 -2 4 -9 8 -16 8 -7 0 -49 20 -94 44 -45 24 -82 41 -82 38 0 -4 -4 -2
-8 3 -4 6 -56 36 -117 67 -60 31 -162 83 -225 117 -188 98 -270 141 -365 188
-49 25 -91 49 -93 54 -2 5 -9 9 -15 9 -7 0 -23 6 -37 13 -14 7 -72 38 -130 67
-58 30 -108 58 -111 63 -3 5 -8 8 -10 6 -4 -2 -41 16 -189 94 -52 27 -145 75
-207 107 l-111 57 0 -246z"/>
        <path d="M3870 10349 c-74 -39 -189 -99 -255 -134 -66 -34 -182 -94 -257 -134
-76 -39 -200 -103 -275 -143 -76 -39 -169 -87 -208 -107 -38 -20 -73 -40 -77
-46 -4 -5 -8 -6 -8 -2 0 5 -15 0 -32 -11 -18 -11 -96 -52 -173 -92 -209 -108
-480 -249 -570 -296 -44 -24 -127 -66 -185 -95 -58 -29 -117 -62 -132 -72 -16
-10 -28 -15 -28 -11 0 4 -8 1 -17 -7 -10 -8 -72 -42 -138 -74 -66 -33 -122
-62 -125 -65 -3 -3 -48 -27 -100 -54 -52 -27 -149 -77 -215 -111 -66 -35 -169
-88 -230 -120 -60 -31 -116 -61 -122 -67 -10 -8 -13 -64 -13 -216 0 -113 3
-202 7 -199 3 4 11 3 17 -2 6 -5 70 -39 141 -76 206 -107 392 -204 490 -255
50 -26 151 -78 225 -116 74 -38 138 -73 142 -79 4 -5 8 -7 8 -3 0 4 21 -5 48
-20 26 -15 70 -39 97 -52 28 -14 51 -28 53 -32 2 -5 11 -8 21 -8 9 0 21 -4 27
-9 5 -5 72 -41 149 -81 77 -40 190 -98 250 -130 61 -32 157 -82 215 -111 58
-30 107 -56 110 -59 3 -3 57 -31 120 -63 63 -31 169 -86 235 -120 66 -35 206
-107 310 -161 105 -55 231 -120 280 -146 50 -26 133 -69 185 -96 52 -27 97
-52 98 -56 2 -5 10 -8 18 -8 8 0 26 -7 39 -16 20 -13 25 -14 26 -3 7 82 2 465
-6 475 -5 7 -41 30 -80 50 -38 20 -123 64 -188 97 -65 34 -166 87 -225 117
-59 31 -179 94 -267 140 -88 46 -205 106 -260 134 -55 28 -102 53 -105 56 -3
3 -45 26 -95 51 -172 88 -410 212 -505 262 -52 28 -133 70 -180 94 -47 24
-134 69 -195 101 -60 31 -175 91 -255 132 -80 41 -148 80 -152 85 -4 6 -8 7
-8 2 0 -4 -11 0 -24 9 -14 8 -62 34 -107 58 -45 23 -81 46 -81 51 0 9 34 27
352 192 74 38 198 103 275 143 77 40 185 96 240 125 55 29 156 81 225 117 69
36 197 103 285 149 88 45 210 109 270 140 224 117 363 189 485 251 69 34 127
65 130 68 3 3 52 30 110 59 58 29 145 74 193 100 49 25 105 54 125 65 20 10
39 22 42 26 10 15 4 474 -5 476 -6 2 -71 -29 -145 -67z"/>
        <path d="M10687 10124 c-1 -1 -29 -5 -62 -8 -33 -4 -67 -9 -75 -11 -8 -2 -28
-6 -43 -9 -44 -8 -139 -36 -174 -52 -17 -8 -36 -14 -42 -14 -6 0 -26 -9 -46
-20 -19 -11 -35 -16 -35 -12 0 4 -4 3 -8 -3 -4 -5 -29 -21 -55 -35 -92 -48
-200 -135 -399 -322 -64 -60 -120 -110 -125 -111 -4 -1 -8 110 -9 246 l-1 248
-28 29 c-15 16 -31 27 -36 25 -4 -3 -47 -7 -96 -10 -48 -3 -122 -7 -163 -10
-41 -2 -113 -7 -160 -10 -84 -6 -126 -9 -285 -21 -44 -3 -109 -7 -145 -9 -158
-9 -290 -19 -310 -24 -6 -1 -5 -220 2 -226 2 -2 29 -7 59 -11 116 -13 195 -32
258 -62 57 -27 137 -102 161 -149 8 -15 20 -35 27 -44 7 -8 14 -24 16 -35 2
-10 7 -26 10 -34 20 -46 23 -207 22 -1265 -1 -1091 -2 -1163 -19 -1210 -56
-155 -143 -194 -483 -217 -14 -1 -14 0 -16 -138 l-2 -100 866 0 865 0 0 117
c-1 95 -4 117 -16 118 -8 2 -35 6 -60 9 -80 12 -154 27 -185 38 -125 46 -207
105 -242 172 -39 76 -40 89 -40 1169 l0 1047 51 77 c49 73 172 213 188 213 4
0 19 10 34 23 47 41 247 147 278 147 6 0 16 4 22 9 5 5 45 19 89 31 113 31
326 36 406 10 104 -34 208 -100 262 -167 10 -13 24 -29 31 -36 37 -37 103
-166 121 -237 13 -48 25 -102 31 -136 10 -60 12 -2048 2 -2104 -5 -27 -14 -59
-21 -72 -22 -42 -51 -83 -64 -91 -7 -4 -18 -13 -25 -20 -15 -15 -90 -44 -133
-52 -16 -2 -39 -7 -51 -9 -11 -2 -65 -7 -120 -11 -54 -3 -103 -10 -109 -15 -6
-5 -10 -55 -9 -117 l1 -108 864 0 864 0 0 115 0 115 -25 2 c-107 10 -151 18
-221 43 -88 31 -158 69 -189 102 -26 28 -58 99 -66 145 -3 21 -8 504 -10 1073
-1 569 -5 1049 -7 1065 -3 17 -8 53 -12 80 -41 305 -196 588 -400 727 -100 68
-261 127 -390 144 -54 6 -313 13 -318 8z"/>
    </g>
</svg>
